<svg width="12" height="17" viewBox="0 0 12 17" fill="#015f79"
    xmlns="http://www.w3.org/2000/svg">
    <path d="M8.854 7.85571C8.94789 7.76182 9.00063 7.63448 9.00063 7.50171C9.00063 7.36893 8.94789 7.2416 8.854 7.14771C8.76011 7.05382 8.63278 7.00108 8.5 7.00108C8.36722 7.00108 8.23989 7.05382 8.146 7.14771L5.5 9.79471L4.354 8.64771C4.26011 8.55382 4.13278 8.50108 4 8.50108C3.86722 8.50108 3.73989 8.55382 3.646 8.64771C3.55211 8.7416 3.49937 8.86893 3.49937 9.00171C3.49937 9.13449 3.55211 9.26182 3.646 9.35571L5.146 10.8557C5.19245 10.9023 5.24762 10.9392 5.30837 10.9644C5.36911 10.9896 5.43423 11.0026 5.5 11.0026C5.56577 11.0026 5.63089 10.9896 5.69163 10.9644C5.75238 10.9392 5.80755 10.9023 5.854 10.8557L8.854 7.85571Z" fill="#1A202C" />
    <path d="M12 14.0017V4.50171L7.5 0.00170898H2C1.46957 0.00170898 0.960859 0.212423 0.585786 0.587495C0.210714 0.962568 0 1.47128 0 2.00171V14.0017C0 14.5321 0.210714 15.0408 0.585786 15.4159C0.960859 15.791 1.46957 16.0017 2 16.0017H10C10.5304 16.0017 11.0391 15.791 11.4142 15.4159C11.7893 15.0408 12 14.5321 12 14.0017ZM7.5 3.00171C7.5 3.39953 7.65804 3.78106 7.93934 4.06237C8.22064 4.34367 8.60218 4.50171 9 4.50171H11V14.0017C11 14.2669 10.8946 14.5213 10.7071 14.7088C10.5196 14.8964 10.2652 15.0017 10 15.0017H2C1.73478 15.0017 1.48043 14.8964 1.29289 14.7088C1.10536 14.5213 1 14.2669 1 14.0017V2.00171C1 1.73649 1.10536 1.48214 1.29289 1.2946C1.48043 1.10707 1.73478 1.00171 2 1.00171H7.5V3.00171Z" fill="#1A202C" />
</svg>